<svg width="1096" height="575" viewBox="0 0 1096 575" fill="none" xmlns="http://www.w3.org/2000/svg">
<g id="undraw_contact_us_15o2 1" clip-path="url(#clip0)">
<g id="shadows">
<path id="Vector" opacity="0.1" d="M548 501.99C850.652 501.99 1096 498.023 1096 493.13C1096 488.237 850.652 484.27 548 484.27C245.348 484.27 0 488.237 0 493.13C0 498.023 245.348 501.99 548 501.99Z" fill="#6C63FF"/>
<path id="Vector_2" opacity="0.1" d="M548 574.74C850.652 574.74 1096 570.773 1096 565.88C1096 560.987 850.652 557.02 548 557.02C245.348 557.02 0 560.987 0 565.88C0 570.773 245.348 574.74 548 574.74Z" fill="#6C63FF"/>
<path id="Vector_3" opacity="0.1" d="M548 350.16C850.652 350.16 1096 346.193 1096 341.3C1096 336.407 850.652 332.44 548 332.44C245.348 332.44 0 336.407 0 341.3C0 346.193 245.348 350.16 548 350.16Z" fill="#6C63FF"/>
<path id="Vector_4" opacity="0.1" d="M548 426.07C850.652 426.07 1096 422.103 1096 417.21C1096 412.317 850.652 408.35 548 408.35C245.348 408.35 0 412.317 0 417.21C0 422.103 245.348 426.07 548 426.07Z" fill="#6C63FF"/>
</g>
<g id="right_cloud">
<path id="Vector_5" opacity="0.1" d="M808.79 110.37C805.22 109.696 801.53 110.1 798.19 111.53C796.185 112.423 794.015 112.885 791.82 112.885C789.625 112.885 787.455 112.423 785.45 111.53C783.078 110.489 780.508 109.976 777.918 110.026C775.328 110.076 772.78 110.688 770.45 111.82C769.123 112.525 767.643 112.896 766.14 112.9C760.06 112.9 755.01 106.78 753.96 98.71C755.157 97.8181 756.174 96.7088 756.96 95.44C760.52 89.7 766.03 86.01 772.23 86.01C778.43 86.01 783.87 89.65 787.43 95.33C788.49 97.0461 789.977 98.4584 791.745 99.4293C793.513 100.4 795.503 100.897 797.52 100.87H797.68C802.57 100.82 806.76 104.7 808.79 110.37Z" fill="#6C63FF"/>
<path id="Vector_6" opacity="0.1" d="M827.3 85.02L817.48 91.24L823.48 80.4C821.79 79.055 819.7 78.3124 817.54 78.29H817.38C816.71 78.2991 816.041 78.2489 815.38 78.14L812 80.25L813.43 77.65C811.067 76.8321 809.025 75.2843 807.6 73.23L801.6 77.01L805.36 70.17C801.88 65.99 797.18 63.43 792.02 63.43C785.82 63.43 780.31 67.11 776.74 72.85C775.688 74.5663 774.2 75.9736 772.428 76.9291C770.656 77.8845 768.662 78.354 766.65 78.29H766.32C759.48 78.29 753.94 86.04 753.94 95.6C753.94 105.16 759.48 112.92 766.32 112.92C767.822 112.91 769.3 112.54 770.63 111.84C772.959 110.705 775.507 110.09 778.097 110.039C780.687 109.987 783.258 110.499 785.63 111.54C787.633 112.44 789.804 112.905 792 112.905C794.196 112.905 796.367 112.44 798.37 111.54C800.723 110.522 803.268 110.022 805.831 110.072C808.395 110.122 810.918 110.721 813.23 111.83C814.545 112.518 816.006 112.882 817.49 112.89C824.33 112.89 829.87 105.13 829.87 95.57C829.911 91.8935 829.028 88.2656 827.3 85.02V85.02Z" fill="#6C63FF"/>
</g>
<g id="middle_cloud">
<path id="Vector_7" opacity="0.1" d="M391.26 104.96C388.758 104.487 386.172 104.769 383.83 105.77C382.428 106.396 380.91 106.72 379.375 106.72C377.84 106.72 376.322 106.396 374.92 105.77C373.261 105.041 371.463 104.683 369.652 104.719C367.84 104.755 366.058 105.186 364.43 105.98C363.503 106.463 362.475 106.72 361.43 106.73C357.18 106.73 353.64 102.45 352.9 96.8C353.748 96.1782 354.471 95.4011 355.03 94.51C357.52 90.51 361.38 87.91 365.72 87.91C370.06 87.91 373.87 90.46 376.36 94.43C377.104 95.6317 378.145 96.6207 379.384 97.3006C380.623 97.9804 382.017 98.3282 383.43 98.31H383.54C386.9 98.29 389.83 101.01 391.26 104.96Z" fill="#6C63FF"/>
<path id="Vector_8" opacity="0.1" d="M404.21 87.23L397.34 91.59L401.51 84C400.331 83.0564 398.87 82.5353 397.36 82.52H397.24C396.764 82.5285 396.289 82.4917 395.82 82.41L393.49 83.89L394.49 82.07C392.838 81.4955 391.411 80.4141 390.41 78.98L386.24 81.62L388.88 76.84C387.771 75.4084 386.358 74.2412 384.743 73.4232C383.127 72.6051 381.35 72.1565 379.54 72.11C375.2 72.11 371.34 74.69 368.85 78.71C368.112 79.9119 367.069 80.8974 365.828 81.5665C364.586 82.2356 363.19 82.5645 361.78 82.52H361.55C356.76 82.52 352.88 87.94 352.88 94.64C352.88 101.34 356.76 106.76 361.55 106.76C362.597 106.752 363.626 106.491 364.55 106C366.178 105.21 367.959 104.783 369.768 104.748C371.577 104.714 373.373 105.073 375.03 105.8C376.44 106.443 377.97 106.784 379.52 106.8C381.046 106.797 382.555 106.477 383.95 105.86C385.597 105.147 387.378 104.796 389.172 104.831C390.966 104.865 392.732 105.284 394.35 106.06C395.276 106.545 396.305 106.799 397.35 106.8C402.13 106.8 406.01 101.37 406.01 94.68C406.05 92.0843 405.431 89.5209 404.21 87.23V87.23Z" fill="#6C63FF"/>
</g>
<g id="left_cloud">
<path id="Vector_9" opacity="0.1" d="M269.59 183.37C272.089 182.898 274.672 183.18 277.01 184.18C278.413 184.807 279.933 185.13 281.47 185.13C283.007 185.13 284.527 184.807 285.93 184.18C287.589 183.452 289.386 183.094 291.197 183.128C293.008 183.163 294.79 183.59 296.42 184.38C297.344 184.872 298.373 185.133 299.42 185.14C303.67 185.14 307.21 180.85 307.94 175.2C307.092 174.58 306.373 173.803 305.82 172.91C303.32 168.91 299.46 166.32 295.13 166.32C290.8 166.32 286.98 168.86 284.48 172.84C283.737 174.04 282.697 175.028 281.46 175.708C280.223 176.388 278.831 176.736 277.42 176.72H277.31C273.94 176.74 271 179.45 269.59 183.37Z" fill="#6C63FF"/>
<path id="Vector_10" opacity="0.1" d="M256.63 165.67L263.51 170.03L259.33 162.45C260.512 161.503 261.976 160.979 263.49 160.96H263.6C264.079 160.967 264.557 160.933 265.03 160.86L267.36 162.33L266.36 160.52C268.008 159.944 269.433 158.863 270.43 157.43L274.6 160.07L272 155.28C273.109 153.85 274.523 152.684 276.138 151.868C277.754 151.051 279.531 150.605 281.34 150.56C285.67 150.56 289.54 153.14 292.03 157.16C292.767 158.36 293.808 159.345 295.048 160.014C296.288 160.683 297.682 161.013 299.09 160.97H299.33C304.11 160.97 307.99 166.4 307.99 173.09C307.99 179.78 304.11 185.21 299.33 185.21C298.284 185.205 297.255 184.948 296.33 184.46C294.702 183.666 292.92 183.235 291.108 183.199C289.297 183.163 287.499 183.521 285.84 184.25C284.435 184.899 282.907 185.24 281.36 185.25C279.831 185.249 278.319 184.929 276.92 184.31C275.275 183.597 273.496 183.247 271.703 183.281C269.911 183.316 268.147 183.735 266.53 184.51C265.604 184.995 264.575 185.249 263.53 185.25C258.74 185.25 254.86 179.83 254.86 173.13C254.813 170.534 255.422 167.968 256.63 165.67V165.67Z" fill="#6C63FF"/>
</g>
<g id="phonecircle">
<path id="Vector_11" d="M779.73 338.14C834.936 338.14 879.69 293.386 879.69 238.18C879.69 182.974 834.936 138.22 779.73 138.22C724.524 138.22 679.77 182.974 679.77 238.18C679.77 293.386 724.524 338.14 779.73 338.14Z" fill="#3F3D56"/>
<path id="Vector_12" d="M822.64 263.96C819.16 260.48 810.79 255.23 806.64 253.27C801.85 250.97 800.09 251.01 796.7 253.46C793.88 255.46 792.05 257.39 788.81 256.68C785.57 255.97 779.15 251.13 772.94 244.94C766.73 238.75 761.91 232.37 761.22 229.08C760.53 225.79 762.43 224 764.45 221.18C766.89 217.79 766.96 216.03 764.64 211.24C762.64 207.09 757.45 198.74 753.94 195.24C750.43 191.74 749.67 192.51 747.75 193.24C745.774 194.068 743.876 195.072 742.08 196.24C738.6 198.57 736.65 200.51 735.28 203.43C733.91 206.35 732.36 211.77 740.33 225.96C746.209 236.815 753.656 246.745 762.43 255.43V255.43C771.144 264.224 781.108 271.684 792 277.57C806.18 285.57 811.61 283.98 814.53 282.62C817.45 281.26 819.39 279.33 821.71 275.82C822.88 274.025 823.884 272.127 824.71 270.15C825.37 268.23 826.15 267.45 822.64 263.96Z" fill="#6C63FF"/>
<path id="Vector_13" opacity="0.1" d="M779.73 138.23C759.948 138.22 740.607 144.078 724.154 155.062C707.702 166.047 694.877 181.664 687.302 199.939C679.727 218.213 677.742 238.324 681.599 257.727C685.456 277.13 694.981 294.952 708.969 308.941C722.958 322.929 740.78 332.454 760.183 336.311C779.586 340.168 799.697 338.183 817.971 330.608C836.246 323.033 851.863 310.208 862.848 293.756C873.832 277.303 879.69 257.962 879.68 238.18C879.667 211.676 869.132 186.261 850.391 167.519C831.649 148.778 806.234 138.243 779.73 138.23V138.23ZM779.73 324.85C762.588 324.85 745.832 319.767 731.579 310.243C717.326 300.72 706.217 287.184 699.657 271.347C693.098 255.51 691.381 238.084 694.725 221.272C698.07 204.459 706.324 189.016 718.445 176.895C730.566 164.774 746.009 156.52 762.822 153.175C779.634 149.831 797.06 151.548 812.897 158.107C828.734 164.667 842.27 175.776 851.793 190.029C861.317 204.282 866.4 221.038 866.4 238.18C866.4 249.562 864.158 260.832 859.803 271.347C855.447 281.862 849.063 291.417 841.015 299.465C832.967 307.513 823.412 313.897 812.897 318.253C802.382 322.608 791.112 324.85 779.73 324.85Z" fill="black"/>
</g>
<g id="mailcircle">
<path id="Vector_14" d="M550.08 489.97C605.286 489.97 650.04 445.216 650.04 390.01C650.04 334.804 605.286 290.05 550.08 290.05C494.874 290.05 450.12 334.804 450.12 390.01C450.12 445.216 494.874 489.97 550.08 489.97Z" fill="#3F3D56"/>
<path id="Vector_15" d="M606.93 359.81L577 390.26C576.947 390.31 576.906 390.371 576.877 390.438C576.848 390.505 576.834 390.577 576.834 390.65C576.834 390.723 576.848 390.795 576.877 390.862C576.906 390.929 576.947 390.99 577 391.04L598 413.37C598.502 413.876 598.844 414.519 598.982 415.219C599.12 415.919 599.049 416.644 598.776 417.303C598.504 417.962 598.043 418.526 597.451 418.924C596.859 419.322 596.163 419.536 595.45 419.54C594.49 419.538 593.57 419.157 592.89 418.48L572 396.23C571.893 396.125 571.75 396.066 571.6 396.066C571.45 396.066 571.307 396.125 571.2 396.23L566.11 401.37C564.026 403.501 561.537 405.194 558.789 406.35C556.042 407.506 553.091 408.101 550.11 408.1C547.073 408.086 544.069 407.467 541.274 406.279C538.478 405.09 535.948 403.357 533.83 401.18L528.94 396.18C528.833 396.075 528.69 396.016 528.54 396.016C528.39 396.016 528.247 396.075 528.14 396.18L507.3 418.38C506.965 418.716 506.566 418.982 506.128 419.164C505.69 419.346 505.22 419.44 504.745 419.44C504.27 419.44 503.8 419.346 503.362 419.164C502.924 418.982 502.525 418.716 502.19 418.38C501.853 418.045 501.585 417.647 501.403 417.209C501.22 416.77 501.126 416.3 501.126 415.825C501.126 415.35 501.22 414.88 501.403 414.441C501.585 414.003 501.853 413.605 502.19 413.27L523.11 390.99C523.203 390.881 523.254 390.743 523.254 390.6C523.254 390.457 523.203 390.319 523.11 390.21L493.18 359.76C493.103 359.683 493.005 359.63 492.898 359.609C492.791 359.587 492.68 359.598 492.579 359.64C492.478 359.682 492.392 359.752 492.332 359.843C492.272 359.934 492.24 360.041 492.24 360.15V421.08C492.248 423.435 493.187 425.692 494.853 427.357C496.518 429.023 498.775 429.962 501.13 429.97H599C601.355 429.962 603.612 429.023 605.277 427.357C606.943 425.692 607.882 423.435 607.89 421.08V360.2C607.895 360.087 607.865 359.974 607.803 359.879C607.742 359.783 607.653 359.709 607.548 359.666C607.442 359.624 607.327 359.615 607.216 359.64C607.105 359.666 607.006 359.725 606.93 359.81V359.81Z" fill="#6C63FF"/>
<path id="Vector_16" d="M550.08 400.87C552.109 400.89 554.121 400.502 555.997 399.729C557.873 398.956 559.574 397.814 561 396.37L604.59 352C603.043 350.718 601.099 350.012 599.09 350H501.15C499.14 350.007 497.195 350.714 495.65 352L539.25 396.37C540.663 397.805 542.35 398.943 544.21 399.716C546.07 400.489 548.066 400.881 550.08 400.87V400.87Z" fill="#6C63FF"/>
<path id="Vector_17" opacity="0.1" d="M548.82 290.06C529.038 290.05 509.697 295.908 493.244 306.892C476.792 317.877 463.967 333.494 456.392 351.769C448.817 370.043 446.832 390.154 450.689 409.557C454.546 428.96 464.071 446.782 478.059 460.771C492.048 474.759 509.871 484.284 529.273 488.141C548.676 491.998 568.787 490.013 587.061 482.438C605.336 474.863 620.953 462.038 631.938 445.586C642.922 429.133 648.78 409.792 648.77 390.01C648.757 363.506 638.222 338.091 619.481 319.349C600.739 300.608 575.324 290.073 548.82 290.06ZM548.82 476.68C531.678 476.68 514.922 471.597 500.669 462.074C486.416 452.55 475.307 439.014 468.747 423.177C462.188 407.34 460.471 389.914 463.815 373.102C467.16 356.289 475.414 340.846 487.535 328.725C499.656 316.604 515.099 308.35 531.912 305.005C548.724 301.661 566.15 303.378 581.987 309.937C597.824 316.497 611.36 327.606 620.883 341.859C630.407 356.112 635.49 372.868 635.49 390.01C635.49 412.996 626.359 435.041 610.105 451.295C593.851 467.549 571.806 476.68 548.82 476.68Z" fill="black"/>
</g>
<g id="arrowcircle">
<path id="Vector_18" d="M312.85 415.32C368.056 415.32 412.81 370.566 412.81 315.36C412.81 260.154 368.056 215.4 312.85 215.4C257.644 215.4 212.89 260.154 212.89 315.36C212.89 370.566 257.644 415.32 312.85 415.32Z" fill="#3F3D56"/>
<path id="Vector_19" d="M312.85 267.53L273 359.47L276.72 363.19L312.86 347.25L349 363.19L352.72 359.47L312.85 267.53Z" fill="#6C63FF"/>
<path id="Vector_20" opacity="0.1" d="M312.85 215.37C293.07 215.36 273.731 221.217 257.279 232.199C240.828 243.181 228.003 258.795 220.426 277.067C212.85 295.339 210.863 315.447 214.715 334.848C218.568 354.25 228.088 372.073 242.072 386.063C256.055 400.053 273.873 409.582 293.273 413.445C312.672 417.307 332.781 415.33 351.057 407.763C369.332 400.195 384.953 387.378 395.943 370.932C406.934 354.486 412.8 335.15 412.8 315.37C412.8 288.857 402.271 263.429 383.528 244.677C364.786 225.925 339.363 215.383 312.85 215.37V215.37ZM312.85 401.99C295.706 401.99 278.947 396.906 264.694 387.38C250.44 377.854 239.331 364.315 232.773 348.476C226.214 332.636 224.501 315.207 227.849 298.393C231.197 281.579 239.457 266.136 251.583 254.017C263.709 241.898 279.157 233.648 295.972 230.309C312.788 226.971 330.216 228.694 346.052 235.262C361.888 241.829 375.42 252.946 384.938 267.205C394.455 281.465 399.53 298.226 399.52 315.37C399.517 338.355 390.385 360.397 374.131 376.649C357.878 392.9 335.835 402.03 312.85 402.03V401.99Z" fill="black"/>
</g>
<g id="sittingwoman">
<path id="Vector_21" d="M415.35 438.25L417.53 438.69L424.96 449.68L421.69 450.12L415.35 438.25Z" fill="#2F2E41"/>
<path id="Vector_22" d="M362.49 482.83C363.081 484.769 363.81 486.664 364.67 488.5C367.132 487.98 369.555 487.288 371.92 486.43C371.454 485.736 370.95 485.069 370.41 484.43C369.823 483.792 369.129 483.26 368.36 482.86C367.54 482.675 366.69 482.675 365.87 482.86C364.75 482.83 363.62 482.85 362.49 482.83Z" fill="#FBBEBE"/>
<path id="Vector_23" d="M368.37 485.76C367.779 485.495 367.251 485.106 366.823 484.62C366.395 484.133 366.077 483.56 365.89 482.94C365.509 481.694 364.864 480.545 364 479.57C363.818 479.595 363.645 479.666 363.498 479.776C363.351 479.886 363.235 480.032 363.16 480.2C362.98 480.52 362.87 480.88 362.67 481.2C362.27 481.77 361.57 482.05 361.07 482.53C360.57 483.01 360.27 483.76 359.73 484.25C358.988 484.797 358.116 485.142 357.2 485.25C355.808 485.564 354.464 486.058 353.2 486.72C352.737 486.997 352.244 487.218 351.73 487.38C351.16 487.465 350.58 487.465 350.01 487.38L346.07 487.1C345.739 487.046 345.401 487.046 345.07 487.1C344.668 487.245 344.326 487.521 344.099 487.884C343.873 488.247 343.774 488.675 343.82 489.1C343.867 489.522 344.002 489.929 344.218 490.294C344.433 490.66 344.724 490.975 345.07 491.22C345.754 491.711 346.51 492.096 347.31 492.36C350.74 493.652 354.273 494.655 357.87 495.36V496.14C360.375 497.37 363.129 498.009 365.92 498.01C366.125 498.022 366.33 497.988 366.52 497.91C366.775 497.719 366.953 497.442 367.02 497.13C367.968 494.368 368.523 491.486 368.67 488.57C368.734 487.829 368.677 487.082 368.5 486.36C368.28 485.65 369.02 485.95 368.34 485.67" fill="#2F2E41"/>
<path id="Vector_24" d="M443.93 470.91C432.25 471.61 420.71 468.19 409.01 467.83C407.558 467.734 406.099 467.825 404.67 468.1C403.182 468.504 401.74 469.063 400.37 469.77C394.1 472.69 387.61 475.11 381.13 477.52L373.68 480.29C372.231 480.945 370.66 481.285 369.07 481.29C368.36 481.29 367.49 481.14 367.07 481.73C365.86 483.53 366.43 486.16 367.23 488.18C367.49 488.83 367.93 489.54 368.63 489.61C369.121 489.577 369.602 489.455 370.05 489.25C371.4 488.89 372.75 489.8 374.15 489.95C375.87 490.13 377.47 489.15 379.1 488.55C381.8 487.55 384.74 487.55 387.58 487.11C392.33 486.32 396.74 484.11 400.86 481.6C402.358 480.532 404.034 479.74 405.81 479.26C407.914 479.012 410.046 479.255 412.04 479.97C416.886 481.337 421.656 482.96 426.33 484.83C428.76 485.888 431.251 486.799 433.79 487.56C439.332 489.01 445.191 488.66 450.52 486.56C452.39 485.82 454.42 484.56 454.52 482.5C454.59 481.35 453.69 480.34 453.1 479.35C452.72 478.72 452.33 478.09 451.92 477.48C449.92 474.58 447.48 470.7 443.93 470.91Z" fill="#2F2E41"/>
<path id="Vector_25" opacity="0.1" d="M443.93 470.91C432.25 471.61 420.71 468.19 409.01 467.83C407.558 467.734 406.099 467.825 404.67 468.1C403.182 468.504 401.74 469.063 400.37 469.77C394.1 472.69 387.61 475.11 381.13 477.52L373.68 480.29C372.231 480.945 370.66 481.285 369.07 481.29C368.36 481.29 367.49 481.14 367.07 481.73C365.86 483.53 366.43 486.16 367.23 488.18C367.49 488.83 367.93 489.54 368.63 489.61C369.121 489.577 369.602 489.455 370.05 489.25C371.4 488.89 372.75 489.8 374.15 489.95C375.87 490.13 377.47 489.15 379.1 488.55C381.8 487.55 384.74 487.55 387.58 487.11C392.33 486.32 396.74 484.11 400.86 481.6C402.358 480.532 404.034 479.74 405.81 479.26C407.914 479.012 410.046 479.255 412.04 479.97C416.886 481.337 421.656 482.96 426.33 484.83C428.76 485.888 431.251 486.799 433.79 487.56C439.332 489.01 445.191 488.66 450.52 486.56C452.39 485.82 454.42 484.56 454.52 482.5C454.59 481.35 453.69 480.34 453.1 479.35C452.72 478.72 452.33 478.09 451.92 477.48C449.92 474.58 447.48 470.7 443.93 470.91Z" fill="black"/>
<path id="Vector_26" d="M384.92 483.37C386.747 483.99 388.59 484.563 390.45 485.09C391.45 483.38 393.45 482.19 393.88 480.23C393.905 480.145 393.905 480.055 393.88 479.97C393.831 479.887 393.758 479.821 393.67 479.78C392.333 479.046 390.852 478.612 389.33 478.51C388.13 478.44 387.58 479.69 387.04 480.57C386.83 480.96 385.41 483.56 384.92 483.37Z" fill="#FBBEBE"/>
<path id="Vector_27" d="M387.48 482.15C386.933 482.058 386.412 481.852 385.949 481.548C385.486 481.243 385.091 480.845 384.79 480.38C384.54 479.93 384.26 479.32 383.74 479.38C383.22 479.44 383.05 479.98 382.94 480.45C382.594 482.222 382.088 483.959 381.43 485.64C380.77 487.33 379.651 488.802 378.2 489.89C377.52 490.36 376.77 490.71 376.1 491.21C375.545 491.701 374.954 492.149 374.33 492.55C373.889 492.748 373.434 492.915 372.97 493.05C372.287 493.307 371.636 493.643 371.03 494.05C370.491 494.36 370.034 494.795 369.7 495.32C369.535 495.582 369.439 495.882 369.421 496.192C369.404 496.502 369.465 496.811 369.6 497.09C369.74 497.32 369.927 497.518 370.15 497.669C370.372 497.821 370.625 497.924 370.89 497.97C371.424 498.05 371.966 498.05 372.5 497.97C374.63 497.82 376.76 497.63 378.89 497.44C379.788 497.382 380.68 497.258 381.56 497.07L382.95 496.69C383.744 496.48 384.559 496.359 385.38 496.33C385.619 496.308 385.86 496.332 386.09 496.4C386.58 496.56 386.93 497.05 387.44 497.15C387.779 497.183 388.121 497.138 388.44 497.02C389.994 496.687 391.58 496.523 393.17 496.53C393.87 496.53 394.69 496.35 395.01 495.73C395.41 494.95 394.75 494.08 394.48 493.24C394.351 492.706 394.277 492.159 394.26 491.61C394.141 490.25 393.742 488.929 393.09 487.73C392.55 486.73 391.81 485.63 392.19 484.57C392.379 484.233 392.501 483.863 392.55 483.48C392.4 481.76 388.46 482.37 387.48 482.15Z" fill="#2F2E41"/>
<path id="Vector_28" d="M426.42 452.17C424.347 451.262 422.686 449.615 421.76 447.55C421.57 447.11 421.41 446.64 421.22 446.2C420.61 444.71 419.658 443.384 418.44 442.33C418.312 442.194 418.157 442.085 417.985 442.011C417.813 441.937 417.627 441.9 417.44 441.9C417.254 441.956 417.087 442.061 416.955 442.203C416.823 442.345 416.732 442.52 416.69 442.71C416.578 443.117 416.551 443.542 416.61 443.96C416.712 444.943 416.879 445.919 417.11 446.88L417.68 449.46C417.756 449.855 417.873 450.24 418.03 450.61C418.274 451.042 418.596 451.426 418.98 451.74C419.5 452.22 420.03 452.68 420.56 453.14C420.866 453.407 421.202 453.638 421.56 453.83C422.119 454.097 422.716 454.272 423.33 454.35C425.716 454.661 427.993 455.538 429.97 456.91C429.97 456.91 429.97 455.18 429.97 454.99C429.945 454.487 429.771 454.004 429.47 453.6C428.554 452.933 427.519 452.447 426.42 452.17V452.17Z" fill="#FBBEBE"/>
<path id="Vector_29" opacity="0.1" d="M426.42 452.17C424.347 451.262 422.686 449.615 421.76 447.55C421.57 447.11 421.41 446.64 421.22 446.2C420.61 444.71 419.658 443.384 418.44 442.33C418.312 442.194 418.157 442.085 417.985 442.011C417.813 441.937 417.627 441.9 417.44 441.9C417.254 441.956 417.087 442.061 416.955 442.203C416.823 442.345 416.732 442.52 416.69 442.71C416.578 443.117 416.551 443.542 416.61 443.96C416.712 444.943 416.879 445.919 417.11 446.88L417.68 449.46C417.756 449.855 417.873 450.24 418.03 450.61C418.274 451.042 418.596 451.426 418.98 451.74C419.5 452.22 420.03 452.68 420.56 453.14C420.866 453.407 421.202 453.638 421.56 453.83C422.119 454.097 422.716 454.272 423.33 454.35C425.716 454.661 427.993 455.538 429.97 456.91C429.97 456.91 429.97 455.18 429.97 454.99C429.945 454.487 429.771 454.004 429.47 453.6C428.554 452.933 427.519 452.447 426.42 452.17V452.17Z" fill="black"/>
<path id="Vector_30" d="M450.2 432.43C451.769 432.43 453.04 431.15 453.04 429.57C453.04 427.99 451.769 426.71 450.2 426.71C448.632 426.71 447.36 427.99 447.36 429.57C447.36 431.15 448.632 432.43 450.2 432.43Z" fill="#2F2E41"/>
<path id="Vector_31" d="M448.44 427.85C447.68 427.668 446.879 427.782 446.2 428.17C445.872 428.462 445.61 428.82 445.43 429.22C444.794 430.314 444.297 431.483 443.95 432.7C443.7 433.7 443.66 434.83 443.34 435.86C442.76 437.76 441.27 439.37 441.1 441.35C441.02 442.24 441.17 443.28 440.52 443.88C440.361 444.018 440.19 444.141 440.01 444.25C439.56 444.55 439.178 444.942 438.89 445.4C438.694 445.808 438.427 446.177 438.1 446.49C437.52 446.92 436.56 446.88 436.28 447.49C436 448.1 436.73 448.93 436.56 449.65C436.39 450.37 435.76 450.51 435.31 450.91C434.78 451.47 434.407 452.16 434.23 452.91C433.28 453.093 432.301 453.067 431.361 452.834C430.422 452.601 429.545 452.166 428.79 451.56C429.45 453.564 429.738 455.672 429.64 457.78C429.69 458.117 429.671 458.461 429.585 458.791C429.499 459.121 429.348 459.43 429.14 459.7C431.396 459.868 433.63 460.256 435.81 460.86C436.754 461.175 437.776 461.175 438.72 460.86C439.226 460.589 439.679 460.23 440.06 459.8C441.26 458.58 442.52 457.25 442.81 455.56C442.882 454.605 442.898 453.647 442.86 452.69C442.974 451.503 443.219 450.333 443.59 449.2C444.223 446.849 444.648 444.446 444.86 442.02C444.99 440.52 446.29 439.32 446.97 438.02C448.25 435.49 449.57 432.86 449.66 430.02C449.7 429.1 449.38 427.95 448.44 427.85Z" fill="#2F2E41"/>
<path id="Vector_32" opacity="0.1" d="M448.44 427.85C447.68 427.668 446.879 427.782 446.2 428.17C445.872 428.462 445.61 428.82 445.43 429.22C444.794 430.314 444.297 431.483 443.95 432.7C443.7 433.7 443.66 434.83 443.34 435.86C442.76 437.76 441.27 439.37 441.1 441.35C441.02 442.24 441.17 443.28 440.52 443.88C440.361 444.018 440.19 444.141 440.01 444.25C439.56 444.55 439.178 444.942 438.89 445.4C438.694 445.808 438.427 446.177 438.1 446.49C437.52 446.92 436.56 446.88 436.28 447.49C436 448.1 436.73 448.93 436.56 449.65C436.39 450.37 435.76 450.51 435.31 450.91C434.78 451.47 434.407 452.16 434.23 452.91C433.28 453.093 432.301 453.067 431.361 452.834C430.422 452.601 429.545 452.166 428.79 451.56C429.45 453.564 429.738 455.672 429.64 457.78C429.69 458.117 429.671 458.461 429.585 458.791C429.499 459.121 429.348 459.43 429.14 459.7C431.396 459.868 433.63 460.256 435.81 460.86C436.754 461.175 437.776 461.175 438.72 460.86C439.226 460.589 439.679 460.23 440.06 459.8C441.26 458.58 442.52 457.25 442.81 455.56C442.882 454.605 442.898 453.647 442.86 452.69C442.974 451.503 443.219 450.333 443.59 449.2C444.223 446.849 444.648 444.446 444.86 442.02C444.99 440.52 446.29 439.32 446.97 438.02C448.25 435.49 449.57 432.86 449.66 430.02C449.7 429.1 449.38 427.95 448.44 427.85Z" fill="black"/>
<path id="Vector_33" d="M445.78 473.37C443.35 472.21 441.57 470.06 439.6 468.21C435.85 464.68 431.26 462.21 427.31 458.88C424.69 456.69 422.31 454.14 419.48 452.3C416.945 450.693 414.074 449.69 411.09 449.37C410.761 449.294 410.419 449.294 410.09 449.37C409.712 449.531 409.384 449.79 409.14 450.12C407.865 451.559 406.73 453.116 405.75 454.77C400.75 463.27 393.64 470.41 387.75 478.31C387.615 478.474 387.516 478.665 387.46 478.87C387.435 479.176 387.513 479.482 387.68 479.74L388.88 482.08C389.55 483.4 390.63 484.93 392.07 484.67C392.718 484.482 393.299 484.111 393.74 483.6L399.12 478.45L404.76 473.06C408.06 469.91 411.42 466.68 413.58 462.64C415.26 465.56 418.25 467.47 420.29 470.14C421.07 471.14 421.71 472.27 422.41 473.35C423.52 475.07 424.79 476.69 426.05 478.35L432.52 486.6C433.34 487.765 434.355 488.78 435.52 489.6C437.115 490.468 438.894 490.945 440.71 490.99C443.14 491.207 445.58 491.293 448.02 491.25C449.888 491.325 451.75 490.984 453.47 490.25C454.327 489.873 455.06 489.26 455.582 488.483C456.104 487.706 456.395 486.796 456.42 485.86C456.32 484.891 456.002 483.958 455.49 483.13C453.15 478.96 450.13 475.44 445.78 473.37Z" fill="#2F2E41"/>
<path id="Vector_34" d="M451.95 433.75C453.16 433.75 454.14 432.765 454.14 431.55C454.14 430.335 453.16 429.35 451.95 429.35C450.741 429.35 449.76 430.335 449.76 431.55C449.76 432.765 450.741 433.75 451.95 433.75Z" fill="#E8E8F0"/>
<path id="Vector_35" d="M451.47 429.9C451.959 430.882 452.045 432.016 451.71 433.06C451.365 434.086 450.891 435.063 450.3 435.97C449.792 436.904 449.178 437.776 448.47 438.57C451.85 438.73 455.12 437.41 458.09 435.81C460.49 434.52 462.88 432.93 464.16 430.52C463.778 430.611 463.381 430.621 462.995 430.548C462.609 430.476 462.243 430.323 461.92 430.1C461.275 429.656 460.699 429.121 460.21 428.51L458.52 426.61C458.137 426.192 457.801 425.732 457.52 425.24C457.149 424.566 456.992 423.795 457.07 423.03C456.396 423.733 455.645 424.357 454.83 424.89C453.62 425.68 452.29 426.25 451.07 427.03C450.65 427.31 449.69 427.75 449.94 428.31C450.19 428.87 451.13 429.3 451.47 429.9Z" fill="#FBBEBE"/>
<path id="Vector_36" opacity="0.1" d="M451.47 429.9C451.959 430.882 452.045 432.016 451.71 433.06C451.365 434.086 450.891 435.063 450.3 435.97C449.792 436.904 449.178 437.776 448.47 438.57C451.85 438.73 455.12 437.41 458.09 435.81C460.49 434.52 462.88 432.93 464.16 430.52C463.778 430.611 463.381 430.621 462.995 430.548C462.609 430.476 462.243 430.323 461.92 430.1C461.275 429.656 460.699 429.121 460.21 428.51L458.52 426.61C458.137 426.192 457.801 425.732 457.52 425.24C457.149 424.566 456.992 423.795 457.07 423.03C456.396 423.733 455.645 424.357 454.83 424.89C453.62 425.68 452.29 426.25 451.07 427.03C450.65 427.31 449.69 427.75 449.94 428.31C450.19 428.87 451.13 429.3 451.47 429.9Z" fill="black"/>
<path id="Vector_37" d="M451.51 430.23C451.168 430.712 450.984 431.289 450.984 431.88C450.984 432.471 451.168 433.048 451.51 433.53C451.61 433.65 451.97 434.4 452.12 434.41C452.194 434.404 452.265 434.383 452.33 434.349C452.396 434.314 452.453 434.267 452.5 434.21C453.269 433.408 453.984 432.556 454.64 431.66C455.31 430.766 456.273 430.136 457.36 429.88C458.707 429.829 460.031 430.242 461.11 431.05C461.612 431.279 462.053 431.621 462.4 432.05C462.641 432.491 462.785 432.979 462.82 433.48C463.147 436.498 463.274 439.535 463.2 442.57C463.257 444.762 463.114 446.954 462.77 449.12C462.55 450.23 462.23 451.32 462.08 452.45C461.963 453.445 461.916 454.448 461.94 455.45V459.63C461.913 460.397 461.967 461.164 462.1 461.92C462.3 462.83 462.73 463.68 463.02 464.57C463.319 465.592 463.523 466.64 463.63 467.7L464.2 472.02C464.38 473.38 464.52 474.87 463.69 476.02C463.32 476.51 462.83 476.91 462.45 477.4C461.04 479.24 461.45 481.87 460.9 484.12C460.437 485.767 459.481 487.233 458.16 488.32C457.689 488.786 457.122 489.143 456.498 489.366C455.874 489.589 455.209 489.672 454.55 489.61C452.79 489.28 451.74 487.45 451.26 485.72C450.78 483.99 450.61 482.11 449.57 480.65C448.616 479.545 447.487 478.603 446.23 477.86C444.958 477.106 444.023 475.893 443.62 474.47C443.51 473.84 443.62 473.19 443.51 472.55C443.416 471.745 443.108 470.979 442.617 470.334C442.126 469.688 441.471 469.186 440.72 468.88C439.82 468.53 438.72 468.4 438.2 467.58C439.487 466.774 440.426 465.514 440.83 464.05C441.228 462.596 441.443 461.097 441.47 459.59L441.77 454.59C441.91 452.34 441.97 450.12 442.96 448.1C443.4 447.2 443.96 446.35 444.41 445.46C445.02 444.209 445.538 442.916 445.96 441.59C446.68 439.53 447.4 437.47 448.04 435.39C448.29 434.38 448.673 433.408 449.18 432.5C449.72 431.56 450.5 430.43 451.51 430.23Z" fill="#E8E8F0"/>
<path id="Vector_38" d="M440.36 462.87H441.69L441.97 460.87C442.006 460.469 442.101 460.074 442.25 459.7C442.47 459.303 442.728 458.928 443.02 458.58C444.32 456.73 444.23 454.28 444.55 452.03C445.13 449.057 446.112 446.177 447.47 443.47L450.05 437.72C450.285 437.25 450.472 436.757 450.61 436.25C450.718 435.69 450.772 435.121 450.77 434.55C450.77 433.66 451.05 430.42 451.08 429.55C451.08 429.22 450.35 429.4 450.2 429.11C449.88 428.47 449.44 430.2 448.83 430.58C448.257 431.017 447.84 431.627 447.64 432.32C447.08 433.76 446.74 435.32 446.22 436.75C445.768 438.243 444.938 439.593 443.81 440.67C443.28 441.13 442.67 441.5 442.17 442C440.57 443.58 440.41 446.09 440.36 448.35C440.32 449.73 440.06 462.87 440.36 462.87Z" fill="#2F2E41"/>
<path id="Vector_39" d="M459.5 427.84C458.882 428.163 458.346 428.625 457.935 429.188C457.524 429.752 457.249 430.403 457.13 431.09C456.902 432.469 456.498 433.813 455.93 435.09C454.31 437.91 450.18 438.73 449.03 441.78C448.741 442.806 448.586 443.864 448.57 444.93C448.37 447.12 447.65 449.23 447.43 451.41C447.32 453.107 447.36 454.81 447.55 456.5L449 473.72C449.278 476.253 449.132 478.815 448.57 481.3C450.056 481.512 451.572 481.261 452.91 480.58C454.26 479.96 455.5 479.11 456.81 478.39C459.05 477.15 461.53 476.28 463.5 474.63C463.853 474.349 464.157 474.011 464.4 473.63C464.701 472.907 464.903 472.147 465 471.37C465.17 470.761 465.388 470.166 465.65 469.59C466.372 467.852 466.999 466.076 467.53 464.27C467.891 463.075 468.178 461.86 468.39 460.63C468.55 459.63 468.64 458.63 468.72 457.63C468.824 456.079 469.134 454.549 469.64 453.08C470.895 449.569 471.606 445.886 471.75 442.16C471.789 441.624 471.752 441.085 471.64 440.56C471.42 439.917 471.125 439.303 470.76 438.73C470.16 437.6 469.76 436.36 469.24 435.21C467.822 432.677 465.79 430.542 463.33 429C462.17 428.21 460.81 427.37 459.5 427.84Z" fill="#2F2E41"/>
<path id="Vector_40" d="M429.29 455.94C428.264 455.401 427.334 454.695 426.54 453.85C426.18 453.43 425.88 452.96 425.54 452.54C424.613 451.542 423.407 450.846 422.08 450.54C420.767 450.251 419.424 450.12 418.08 450.15C417.178 450.089 416.272 450.198 415.41 450.47C414.98 450.614 414.593 450.863 414.284 451.195C413.974 451.527 413.753 451.931 413.64 452.37C413.604 452.914 413.709 453.457 413.946 453.948C414.182 454.439 414.542 454.86 414.99 455.17C415.771 455.811 416.693 456.256 417.68 456.47C418.484 456.613 419.295 456.71 420.11 456.76C424.89 457.26 429.16 459.86 433.35 462.23C437.03 464.323 440.783 466.27 444.61 468.07C444.758 466.926 444.822 465.773 444.8 464.62C444.8 463.76 444.73 462.44 443.92 461.93C442.768 461.448 441.568 461.089 440.34 460.86C437.872 460.054 435.463 459.078 433.13 457.94C431.81 457.37 430.54 456.67 429.29 455.94Z" fill="#FBBEBE"/>
<path id="Vector_41" d="M450.2 428.92C454.905 428.92 458.72 425.083 458.72 420.35C458.72 415.617 454.905 411.78 450.2 411.78C445.495 411.78 441.68 415.617 441.68 420.35C441.68 425.083 445.495 428.92 450.2 428.92Z" fill="#FBBEBE"/>
<path id="Vector_42" d="M461.93 437.55C461.25 438.505 460.695 439.543 460.28 440.64C459.28 442.8 457.58 444.64 456.75 446.93C455.92 449.22 455.91 452.16 454.2 454.03C453.858 454.316 453.599 454.689 453.45 455.11C453.443 455.372 453.416 455.632 453.37 455.89C453.12 456.57 452.01 456.6 451.8 457.3C451.74 457.5 451.8 457.72 451.7 457.92C451.53 458.37 450.93 458.44 450.54 458.71C449.71 459.27 449.88 460.57 449.29 461.38C449.033 461.682 448.7 461.91 448.326 462.042C447.952 462.173 447.55 462.204 447.16 462.13C446.384 461.972 445.638 461.692 444.95 461.3C444.703 461.165 444.431 461.08 444.15 461.05C443.818 461.062 443.497 461.173 443.23 461.37C442.476 461.926 441.871 462.659 441.47 463.506C441.068 464.352 440.883 465.284 440.93 466.22C441.045 468.094 441.492 469.933 442.25 471.65C442.334 471.947 442.481 472.224 442.68 472.46C442.978 472.694 443.338 472.834 443.716 472.862C444.093 472.891 444.471 472.806 444.8 472.62C445.452 472.232 446.147 471.92 446.87 471.69C448.19 471.45 449.48 472.36 450.82 472.28C451.796 472.136 452.715 471.732 453.48 471.11C454.826 470.307 456.034 469.294 457.06 468.11C457.64 467.34 458.06 466.47 458.58 465.65C459.242 464.653 459.959 463.695 460.73 462.78L465.65 456.78C466.139 456.21 466.58 455.602 466.97 454.96C467.407 454.085 467.743 453.162 467.97 452.21C468.496 450.625 468.832 448.984 468.97 447.32C469 445.944 468.88 444.569 468.61 443.22C468.461 441.876 468.124 440.56 467.61 439.31C466.54 437.05 463.94 435.21 461.93 437.55Z" fill="#2F2E41"/>
<path id="Vector_43" d="M479.05 426.37C479.057 424.851 478.704 423.352 478.019 421.996C477.334 420.64 476.337 419.466 475.11 418.57C475.07 415.871 474.074 413.274 472.3 411.24C470.526 409.206 468.088 407.867 465.42 407.46C464.907 404.901 463.507 402.606 461.466 400.979C459.425 399.352 456.875 398.499 454.267 398.57C451.658 398.64 449.158 399.63 447.208 401.365C445.258 403.099 443.984 405.467 443.61 408.05C440.07 407.25 436.83 408.29 436.24 410.47C435.65 412.65 438.15 415.47 441.88 416.47C443.057 416.8 444.282 416.921 445.5 416.83C446.368 418.11 447.495 419.193 448.807 420.011C450.12 420.83 451.589 421.364 453.12 421.58C453.574 423.642 454.592 425.536 456.062 427.051C457.531 428.567 459.393 429.643 461.44 430.16C462.01 431.527 462.89 432.742 464.01 433.71C464.01 433.98 464.01 434.26 464.01 434.54C464.01 435.487 464.197 436.424 464.559 437.299C464.921 438.174 465.452 438.969 466.122 439.638C466.791 440.308 467.586 440.839 468.461 441.201C469.336 441.564 470.273 441.75 471.22 441.75C472.167 441.75 473.104 441.564 473.979 441.201C474.854 440.839 475.649 440.308 476.318 439.638C476.988 438.969 477.519 438.174 477.881 437.299C478.244 436.424 478.43 435.487 478.43 434.54C478.431 433.44 478.195 432.352 477.74 431.35C478.62 429.839 479.073 428.118 479.05 426.37V426.37Z" fill="#F86D70"/>
<path id="Vector_44" opacity="0.1" d="M438.64 410.93C439.23 408.75 442.47 407.71 446.01 408.51C446.43 405.886 447.765 403.495 449.778 401.76C451.791 400.025 454.353 399.058 457.01 399.03H457.74C456.722 398.72 455.664 398.562 454.6 398.56C451.943 398.588 449.381 399.555 447.368 401.29C445.355 403.025 444.02 405.416 443.6 408.04C440.06 407.24 436.82 408.28 436.23 410.46C435.64 412.64 438.14 415.46 441.87 416.46C442.569 416.654 443.286 416.778 444.01 416.83C440.44 415.76 438.05 413.16 438.64 410.93Z" fill="black"/>
<path id="Vector_45" opacity="0.1" d="M466.37 434.96C466.355 434.687 466.355 434.413 466.37 434.14C465.244 433.177 464.363 431.96 463.8 430.59C461.751 430.075 459.886 428.999 458.416 427.481C456.946 425.963 455.929 424.065 455.48 422C453.947 421.788 452.476 421.257 451.162 420.44C449.847 419.624 448.719 418.54 447.85 417.26C447.14 417.319 446.426 417.299 445.72 417.2C446.596 418.378 447.696 419.37 448.958 420.12C450.219 420.87 451.617 421.363 453.07 421.57C453.524 423.631 454.542 425.526 456.012 427.041C457.481 428.557 459.343 429.633 461.39 430.15C461.96 431.517 462.84 432.732 463.96 433.7C463.96 433.97 463.96 434.25 463.96 434.53C463.928 436.468 464.664 438.341 466.007 439.738C467.35 441.136 469.192 441.945 471.13 441.99C469.716 441.441 468.503 440.474 467.652 439.218C466.802 437.962 466.355 436.477 466.37 434.96V434.96Z" fill="black"/>
<path id="Vector_46" d="M454.107 423.496C454.683 423.058 454.676 422.08 454.092 421.31C453.507 420.54 452.566 420.271 451.99 420.709C451.414 421.146 451.421 422.125 452.006 422.895C452.59 423.664 453.531 423.934 454.107 423.496Z" fill="#FBBEBE"/>
<path id="Vector_47" d="M478 425.28C478.013 423.746 477.666 422.231 476.987 420.855C476.308 419.48 475.316 418.283 474.09 417.36C474.075 414.649 473.102 412.03 471.344 409.966C469.586 407.902 467.155 406.526 464.48 406.08C464.067 404.109 463.142 402.282 461.8 400.781C460.457 399.28 458.743 398.159 456.83 397.53V397.53C456.366 397.385 455.891 397.274 455.41 397.2H455.27H455.02H454.82H454.6H454.33H453.72C451.063 397.261 448.513 398.261 446.522 400.021C444.531 401.782 443.226 404.19 442.84 406.82C439.33 406.01 436.12 407.06 435.53 409.28C435.382 409.87 435.417 410.491 435.63 411.06C436.23 412.78 438.18 414.43 440.79 415.24L441.13 415.34L441.64 415.47H441.75C441.193 416.655 440.906 417.95 440.91 419.26C440.902 420.868 441.337 422.446 442.168 423.822C442.999 425.198 444.194 426.319 445.62 427.06L445.39 427.2C445.065 427.496 444.806 427.857 444.63 428.26C443.999 429.376 443.505 430.565 443.16 431.8C442.91 432.86 442.87 433.96 442.56 435.01C441.98 436.94 440.5 438.57 440.33 440.58C440.25 441.48 440.4 442.58 439.76 443.16C439.603 443.297 439.432 443.417 439.25 443.52C438.807 443.833 438.43 444.231 438.14 444.69C437.948 445.106 437.684 445.486 437.36 445.81C436.78 446.24 435.83 446.2 435.55 446.87C435.27 447.54 436 448.33 435.83 449.06C435.66 449.79 435.04 449.93 434.59 450.34C434.067 450.903 433.698 451.592 433.52 452.34C432.574 452.521 431.599 452.491 430.666 452.252C429.733 452.014 428.864 451.572 428.12 450.96C428.375 451.606 428.563 452.276 428.68 452.96C427.81 452.296 426.823 451.801 425.77 451.5C424.585 450.961 423.529 450.177 422.67 449.2L424.33 448.97L417 437.78L414.83 437.33L416.77 441.06C416.608 441.134 416.464 441.243 416.35 441.38C416.236 441.517 416.154 441.677 416.11 441.85C416.007 442.265 415.983 442.696 416.04 443.12C416.14 444.13 416.307 445.132 416.54 446.12L417.1 448.74C417.15 448.98 417.21 449.23 417.28 449.47C416.549 449.434 415.816 449.515 415.11 449.71C413.656 449.169 412.142 448.81 410.6 448.64C410.27 448.573 409.93 448.573 409.6 448.64C409.226 448.817 408.901 449.081 408.65 449.41C407.387 450.875 406.266 452.455 405.3 454.13C401.3 460.99 396.09 466.98 391.16 473.18C387.76 474.56 384.33 475.87 380.9 477.18L373.52 480C372.081 480.653 370.52 480.994 368.94 481C368.24 481 367.37 480.85 366.94 481.45C366.747 481.762 366.596 482.098 366.49 482.45L365.73 482.53C365.38 481.329 364.776 480.218 363.96 479.27C363.78 479.301 363.61 479.375 363.466 479.487C363.321 479.598 363.206 479.744 363.13 479.91C362.95 480.24 362.84 480.6 362.63 480.91C362.24 481.49 361.55 481.77 361.06 482.26C360.57 482.75 360.26 483.51 359.72 484.01C358.984 484.555 358.119 484.899 357.21 485.01C355.84 485.33 354.518 485.831 353.28 486.5C352.827 486.784 352.34 487.009 351.83 487.17C351.267 487.28 350.69 487.3 350.12 487.23L346.22 486.94C345.87 486.896 345.515 486.913 345.17 486.99C344.778 487.149 344.448 487.429 344.225 487.788C344.002 488.148 343.899 488.568 343.93 488.99C343.98 489.414 344.116 489.823 344.329 490.192C344.542 490.562 344.829 490.884 345.17 491.14C345.845 491.638 346.594 492.026 347.39 492.29C350.765 493.604 354.244 494.634 357.79 495.37V496.16C360.271 497.411 363.011 498.062 365.79 498.06C365.996 498.074 366.202 498.036 366.39 497.95C366.645 497.759 366.823 497.482 366.89 497.17C367.719 494.69 368.243 492.117 368.45 489.51V489.51C368.938 489.477 369.416 489.355 369.86 489.15C371.2 488.78 372.54 489.7 373.93 489.85C375.64 490.04 377.22 489.04 378.84 488.43L379.54 488.2C379.079 488.793 378.533 489.315 377.92 489.75C377.25 490.23 376.5 490.59 375.85 491.09C375.3 491.588 374.711 492.043 374.09 492.45C373.652 492.653 373.201 492.826 372.74 492.97C372.058 493.223 371.41 493.559 370.81 493.97C370.278 494.287 369.829 494.726 369.5 495.25C369.336 495.518 369.24 495.822 369.221 496.136C369.201 496.45 369.26 496.764 369.39 497.05C369.528 497.283 369.715 497.485 369.938 497.64C370.16 497.795 370.413 497.901 370.68 497.95C371.207 498.03 371.743 498.03 372.27 497.95C374.39 497.79 376.5 497.6 378.61 497.41C379.502 497.353 380.388 497.226 381.26 497.03C381.72 496.92 382.18 496.77 382.64 496.64C383.429 496.441 384.237 496.32 385.05 496.28C385.286 496.262 385.523 496.285 385.75 496.35C386.24 496.51 386.59 497.01 387.09 497.11C387.429 497.153 387.773 497.108 388.09 496.98C389.631 496.648 391.203 496.48 392.78 496.48C393.47 496.48 394.28 496.31 394.6 495.67C394.92 495.03 394.34 494 394.08 493.15C393.947 492.606 393.873 492.05 393.86 491.49C393.739 490.113 393.345 488.773 392.7 487.55C392.352 486.98 392.061 486.377 391.83 485.75C394.854 484.601 397.747 483.133 400.46 481.37C401.946 480.294 403.612 479.491 405.38 479C407.468 478.751 409.585 478.998 411.56 479.72C416.368 481.113 421.098 482.762 425.73 484.66C427.94 485.57 430.14 486.53 432.42 487.22C433.085 488.112 433.889 488.892 434.8 489.53C436.375 490.416 438.144 490.9 439.95 490.94C442.36 491.16 444.78 491.25 447.2 491.21C449.053 491.29 450.899 490.948 452.6 490.21C453.006 490.007 453.385 489.755 453.73 489.46C454.383 489.515 455.04 489.427 455.655 489.2C456.271 488.974 456.829 488.616 457.29 488.15C458.601 487.027 459.545 485.536 460 483.87C460.59 481.59 460.14 478.87 461.54 477.05C461.91 476.55 462.4 476.15 462.77 475.65C463.218 474.965 463.442 474.158 463.41 473.34C463.426 473.308 463.447 473.278 463.47 473.25C463.777 472.515 463.979 471.741 464.07 470.95C464.242 470.328 464.459 469.72 464.72 469.13C465.431 467.366 466.052 465.567 466.58 463.74C466.941 462.525 467.228 461.289 467.44 460.04C467.59 459.04 467.68 458.04 467.76 457.04C467.866 455.464 468.172 453.908 468.67 452.41C469.922 448.843 470.63 445.108 470.77 441.33V441.11C472.612 440.898 474.309 440.005 475.527 438.607C476.744 437.208 477.395 435.404 477.35 433.55C477.35 432.437 477.115 431.336 476.66 430.32C477.545 428.788 478.007 427.049 478 425.28ZM442.22 468.75C442.33 469.14 442.46 469.52 442.59 469.9C442 469.33 441.43 468.74 440.84 468.16C441.07 468.24 441.31 468.31 441.53 468.4C441.761 468.494 441.982 468.612 442.19 468.75H442.22ZM439.39 466.83C435.93 463.83 431.93 461.5 428.39 458.59C430.32 459.54 432.2 460.65 434.06 461.71C436.267 462.97 438.503 464.18 440.77 465.34C440.398 465.921 439.919 466.426 439.36 466.83H439.39ZM440.86 459.27L441.03 459.1C441.03 459.53 441.03 459.92 441.03 460.29L440.1 459.97C440.357 459.752 440.601 459.518 440.83 459.27H440.86ZM410.43 467.37C411.849 465.763 413.084 464.002 414.11 462.12C415.48 464.51 417.71 466.24 419.6 468.25C416.55 467.86 413.49 467.53 410.43 467.37Z" fill="url(#paint0_linear)"/>
</g>
</g>
<defs>
<linearGradient id="paint0_linear" x1="62409" y1="67035.2" x2="62409" y2="56849.1" gradientUnits="userSpaceOnUse">
<stop stop-color="#808080" stop-opacity="0.25"/>
<stop offset="0.54" stop-color="#808080" stop-opacity="0.12"/>
<stop offset="1" stop-color="#808080" stop-opacity="0.1"/>
</linearGradient>
<clipPath id="clip0">
<rect width="1096" height="574.74" fill="white"/>
</clipPath>
</defs>
</svg>
