<svg width="739" height="702" viewBox="0 0 739 702" fill="none" xmlns="http://www.w3.org/2000/svg">
<g id="love">
<g id="Ballon">
<g id="Group 2">
<g id="Group 1">
<path id="Vector" d="M527.662 120.899C545.106 111.231 562.825 100.871 575.151 85.1921C588.024 68.8176 593.519 44.3266 581.589 27.2528C571.568 12.9108 551.613 7.86808 534.615 12.0129C517.617 16.1576 503.386 27.9663 492.334 41.5298C495.951 24.8589 478.369 8.76211 461.374 10.2385C444.379 11.7149 430.744 26.5689 426.206 43.013C421.668 59.457 424.621 77.055 429.49 93.404C437.688 120.817 451.087 146.395 468.954 168.743C471.694 163.779 475.005 159.153 478.82 154.959C492.237 140.203 510.218 130.568 527.662 120.899Z" fill="#6C63FF"/>
<path id="Vector_2" d="M467.363 169.541C444.535 144.372 427.815 114.28 418.503 81.6015C413.716 64.6264 410.913 45.3263 418.085 28.5787C423.633 15.6255 435.457 3.90574 450.115 2.82074C465.583 1.67574 482.755 15.9997 479.441 32.3789C479.194 33.6021 480.805 34.8925 481.759 33.7281C494.14 18.6157 511.16 4.69518 531.441 3.33057C549.506 2.11513 568.482 11.1423 573.744 29.4931C579.224 48.6069 569.769 68.8281 556.526 82.3439C541.836 97.337 522.713 106.689 504.664 116.901C486.905 126.948 468.843 138.549 457.92 156.309C452.731 164.523 449.524 173.832 448.553 183.5C447.695 193.479 450.192 202.914 455.022 211.615C460.153 220.858 466.499 229.283 471.132 238.826C475.689 248.258 479.156 258.179 481.464 268.397C486.126 288.763 486.157 309.917 481.554 330.297C473.039 367.44 448.196 400.13 415.132 418.936C411.137 421.204 407.03 423.269 402.827 425.123C401.198 425.843 402.608 428.234 404.227 427.518C421.741 419.657 437.485 408.338 450.515 394.239C463.544 380.141 473.589 363.554 480.047 345.476C494.035 305.766 488.672 260.012 466.295 224.414C460.438 215.097 453.673 206.063 451.744 194.963C449.977 184.792 452.154 174.182 456.448 164.903C465.646 145.032 483.875 132.115 502.289 121.454C520.698 110.796 540.364 101.566 555.965 86.7827C569.853 73.6227 580.099 54.8454 577.694 35.174C576.701 26.1844 572.517 17.8493 565.9 11.6835C559.229 5.81744 550.954 2.08489 542.141 0.967444C522.481 -1.80429 504.053 7.52344 490.04 20.7088C486.391 24.17 482.97 27.8638 479.798 31.767L482.116 33.1162C485.106 18.332 473.354 4.7496 459.593 1.01044C444.628 -3.05587 429.793 5.69274 421.17 17.5531C410.398 32.3679 409.517 51.3666 412.666 68.8344C415.932 86.9548 422.694 104.695 430.907 121.123C440.064 139.405 451.669 156.354 465.401 171.502C466.602 172.828 468.559 170.862 467.363 169.541L467.363 169.541Z" fill="#343154"/>
</g>
</g>
</g>
<g id="Women">
<path id="Vector_3" d="M457.71 668.672L444.623 672.386L393.202 508.636L430.934 502.131L457.71 668.672Z" fill="#9F616A"/>
<path id="Vector_4" d="M304.107 669.612L291.165 666.839L324.644 499.036L361.049 510.896L304.107 669.612Z" fill="#9F616A"/>
<path id="Vector_5" d="M441.939 700.48C445.522 702.115 448.524 691.979 451.547 694.95C460.002 703.259 480.285 701.396 480.285 701.396C480.966 701.177 481.595 700.822 482.135 700.353C482.675 699.884 483.114 699.31 483.425 698.666C483.737 698.022 483.914 697.321 483.947 696.607C483.98 695.892 483.867 695.178 483.616 694.509C483.315 693.707 482.825 692.991 482.186 692.421C481.547 691.851 480.78 691.444 479.949 691.237L470.957 688.989L456.839 664.16L441.452 662.212L441.063 662.848C438.089 667.642 436.171 673.015 435.438 678.609C434.705 684.203 435.173 689.89 436.812 695.288C438.092 699.388 439.833 699.519 441.939 700.48Z" fill="#2F2E41"/>
<path id="Vector_6" d="M285.308 693.256C288.533 695.519 293.336 686.102 295.765 689.575C302.559 699.289 322.841 701.165 322.841 701.165C323.55 701.074 324.234 700.84 324.851 700.478C325.467 700.115 326.004 699.631 326.428 699.054C326.851 698.478 327.154 697.822 327.317 697.125C327.48 696.429 327.499 695.707 327.375 695.002C327.226 694.159 326.874 693.365 326.35 692.688C325.827 692.011 325.146 691.471 324.368 691.115L315.938 687.262L306.595 660.271L291.823 655.544L291.325 656.098C287.524 660.268 284.657 665.2 282.914 670.566C281.171 675.932 280.592 681.608 281.217 687.215C281.725 691.48 283.414 691.927 285.308 693.256Z" fill="#2F2E41"/>
<path id="Vector_7" d="M414.1 383.904C420.992 394.502 427.672 405.205 430.627 417.386C437.773 447.202 442.875 477.471 445.899 507.982C421.956 521.719 401.184 529.605 380.892 530.964C379.948 531.027 379.006 531.071 378.065 531.106L370.668 489.345L364.767 530.646C361.845 530.335 358.919 529.892 355.978 529.3C343.258 526.748 330.306 521.534 316.467 513.529C311.506 493.794 309.423 473.446 310.283 453.116C311.42 425.928 317.567 402.65 323.521 383.958L414.1 383.904Z" fill="#2F2E41"/>
<path id="Vector_8" d="M363.277 260.776L330.75 249.717C342.517 238.198 347.323 225.55 342.459 211.335L378.89 217.84C370.246 234.501 358.927 244.533 363.277 260.776Z" fill="#9F616A"/>
<path id="Vector_9" d="M414.1 383.904C384.512 407.442 354.388 410.155 323.521 383.958C335.964 344.891 310.579 308.154 314.276 280.42C316.583 263.118 323.78 241.686 340.512 236.703L358.483 242.194C364.717 244.097 370.358 247.567 374.866 252.275C379.374 256.982 382.598 262.767 384.229 269.077L386.355 277.351C396.645 288.296 400.074 302.681 397.403 320.144C399.658 325.099 398.623 331.348 397.587 337.606C396.608 343.56 395.628 349.523 397.476 354.376C401.455 364.81 407.864 374.314 414.1 383.904" fill="#343154"/>
<path id="Vector_10" d="M369.783 232.803C385.951 232.803 399.057 219.696 399.057 203.528C399.057 187.36 385.951 174.253 369.783 174.253C353.615 174.253 340.508 187.36 340.508 203.528C340.508 219.696 353.615 232.803 369.783 232.803Z" fill="#9F616A"/>
<path id="Vector_11" d="M470.308 370.212L449.8 363.499L451.296 347.043L473.814 346.543C475.59 346.503 477.353 346.854 478.979 347.571C480.605 348.288 482.053 349.353 483.223 350.69C484.392 352.028 485.253 353.606 485.745 355.314C486.238 357.021 486.349 358.815 486.072 360.57C485.798 362.306 485.15 363.961 484.174 365.422C483.197 366.883 481.915 368.114 480.416 369.031C478.917 369.948 477.237 370.528 475.492 370.732C473.747 370.936 471.978 370.759 470.308 370.212Z" fill="#9F616A"/>
<path id="Vector_12" opacity="0.2" d="M430.627 417.386C422.15 413.411 402.857 403.39 374.985 383.08C336.602 355.106 346.364 286.799 346.364 286.799L397.587 337.606C396.608 343.56 395.628 349.523 397.476 354.376C405.852 376.341 424.997 394.183 430.627 417.386Z" fill="black"/>
<path id="Vector_13" d="M453.704 368.768C425.932 374.921 403.211 378.61 384.745 365.515C355.459 331.455 338.815 297.261 345.045 262.827C345.623 259.725 347.068 256.851 349.213 254.537C351.357 252.223 354.114 250.564 357.163 249.752C361.164 248.671 365.424 249.107 369.123 250.977C372.822 252.848 375.699 256.02 377.199 259.884L399.325 334.038L456.641 345.131L453.704 368.768Z" fill="#2F2E41"/>
<path id="Vector_14" d="M410.178 442.277C406.919 442.272 403.758 441.158 401.216 439.118C398.674 437.079 396.902 434.235 396.191 431.054L394.487 423.383L422.464 417.168L424.167 424.839C424.991 428.549 424.308 432.434 422.267 435.64C420.227 438.846 416.997 441.11 413.287 441.935C412.266 442.162 411.223 442.276 410.178 442.277ZM396.693 424.787L397.996 430.654C398.351 432.253 399.019 433.768 399.959 435.11C400.9 436.452 402.096 437.595 403.478 438.475C404.861 439.355 406.403 439.954 408.018 440.238C409.632 440.522 411.286 440.485 412.886 440.129C414.486 439.774 416 439.107 417.342 438.166C418.684 437.225 419.828 436.03 420.707 434.647C421.587 433.264 422.186 431.722 422.47 430.108C422.754 428.494 422.717 426.839 422.362 425.24L421.059 419.374L396.693 424.787Z" fill="#343154"/>
<path id="Vector_15" d="M398.951 191.292C398.951 191.292 403.65 154.718 365.305 166.712C365.305 166.712 337.918 161.687 328.937 195.943L319.843 231.852L324.275 229.44L326.341 233.957L333.523 235.775L336.596 229.675L338.083 237.083L396.906 242.947C396.906 242.947 370.561 227.366 370.143 199.442L375.161 204.745L398.951 191.292Z" fill="#2F2E41"/>
</g>
<rect x="0.5" y="0.5" width="737.222" height="701" stroke="black"/>
<rect x="0.5" y="0.5" width="737.222" height="701" stroke="url(#paint0_linear)"/>
</g>
<defs>
<linearGradient id="paint0_linear" x1="369.111" y1="0" x2="369.111" y2="702" gradientUnits="userSpaceOnUse">
<stop stop-color="white"/>
<stop offset="1" stop-color="white" stop-opacity="0"/>
</linearGradient>
</defs>
</svg>
